<?xml version="1.0" standalone="no"?>
<!DOCTYPE svg PUBLIC "-//W3C//DTD SVG 20010904//EN"
 "http://www.w3.org/TR/2001/REC-SVG-20010904/DTD/svg10.dtd">
<svg version="1.0" xmlns="http://www.w3.org/2000/svg"
 width="512.000000pt" height="512.000000pt" viewBox="0 0 512.000000 512.000000"
 preserveAspectRatio="xMidYMid meet">

<g transform="translate(0.000000,512.000000) scale(0.100000,-0.100000)"
fill="rgba(136, 104, 65, 0.76)" stroke="none">
<path d="M3201 5095 c-468 -102 -745 -450 -756 -949 l-3 -129 -59 -22 c-63
-23 -148 -68 -158 -85 -12 -20 -24 -9 -57 52 -42 78 -137 174 -215 215 -169
91 -381 85 -545 -13 -112 -68 -209 -200 -243 -331 -25 -96 -17 -240 20 -334 5
-12 -6 -18 -50 -28 -148 -33 -292 -147 -359 -282 -37 -75 -66 -185 -66 -249 0
-64 29 -174 65 -247 49 -99 140 -190 240 -239 59 -29 74 -41 69 -53 -39 -88
-54 -234 -33 -333 30 -147 147 -301 277 -367 l63 -32 -26 -31 c-100 -119 -135
-332 -80 -495 60 -177 203 -311 381 -358 32 -8 59 -17 62 -19 2 -3 -4 -29 -14
-58 -14 -40 -19 -80 -18 -163 0 -94 4 -120 27 -179 68 -175 205 -296 387 -342
89 -23 222 -15 311 18 223 82 371 308 356 541 l-5 77 37 0 c111 0 257 67 351
160 152 153 202 384 125 583 -6 15 -1 17 43 17 135 0 273 59 373 159 113 113
162 238 157 396 l-3 95 35 0 c113 0 259 67 356 164 148 148 198 354 132 551
-66 200 -243 344 -455 371 l-51 6 33 62 c145 266 39 609 -230 742 -73 36 -182
64 -250 64 -124 0 -269 -60 -369 -151 l-63 -58 -50 48 c-28 27 -72 61 -98 77
-61 35 -167 74 -208 75 l-32 1 30 7 30 6 6 130 c9 192 49 317 144 451 97 136
281 241 470 269 l48 8 -7 71 c-4 39 -9 88 -13 109 -6 43 -11 43 -112 22z
m-1376 -1104 c73 -34 146 -111 169 -178 21 -60 20 -166 0 -227 -23 -68 -99
-147 -175 -181 -55 -24 -71 -27 -143 -23 -66 3 -91 10 -135 33 -248 135 -219
496 48 591 20 7 68 13 106 14 57 0 81 -5 130 -29z m872 -217 c63 -30 124 -90
155 -152 19 -39 23 -63 23 -142 0 -80 -4 -102 -23 -138 -35 -66 -88 -119 -150
-149 -49 -24 -69 -28 -142 -28 -73 0 -93 4 -142 28 -62 30 -115 83 -150 149
-19 36 -23 58 -23 138 0 79 4 103 23 141 79 161 270 229 429 153z m845 10 c61
-20 142 -93 176 -158 23 -44 27 -63 27 -141 0 -75 -4 -98 -24 -140 -32 -63
-92 -124 -156 -155 -68 -34 -197 -35 -266 -4 -69 32 -128 91 -161 159 -38 81
-40 194 -4 272 73 155 238 223 408 167z m-1482 -515 c0 -5 -10 -9 -21 -9 -18
0 -19 2 -9 15 12 15 30 12 30 -6z m-662 -38 c173 -89 234 -304 132 -464 -25
-40 -35 -46 -101 -67 -41 -12 -95 -35 -122 -51 -60 -37 -105 -37 -182 0 -137
65 -209 203 -183 351 18 105 103 206 205 245 58 22 196 15 251 -14z m392 -76
c-14 -17 -30 -20 -30 -6 0 5 8 12 18 14 9 3 19 5 21 6 2 0 -2 -6 -9 -14z m413
-120 c100 -26 178 -91 221 -184 30 -66 29 -187 -3 -258 -29 -65 -53 -86 -121
-108 -30 -9 -83 -32 -118 -51 -34 -19 -71 -34 -81 -34 -13 0 -30 19 -51 57
-41 73 -121 152 -195 194 l-58 32 7 60 c15 146 108 256 245 293 62 17 87 17
154 -1z m934 -25 c70 -35 116 -82 149 -155 47 -103 40 -215 -19 -302 -28 -41
-40 -49 -89 -64 -31 -9 -87 -33 -124 -54 -60 -33 -73 -36 -113 -30 -100 15
-193 87 -240 185 -34 73 -37 191 -5 261 79 172 271 241 441 159z m874 -111
c111 -59 171 -158 172 -283 1 -167 -123 -305 -290 -322 -81 -9 -137 9 -196 62
-27 25 -62 52 -77 61 -47 28 -75 103 -75 202 0 100 20 147 89 219 100 106 248
129 377 61z m-2353 -451 c37 -66 110 -141 182 -186 30 -20 59 -40 63 -46 13
-19 -3 -119 -29 -172 -33 -69 -85 -121 -158 -155 -197 -94 -433 42 -453 260
-7 73 10 146 46 203 26 40 35 47 112 72 46 15 100 38 119 51 58 39 83 34 118
-27z m928 -193 c112 -50 175 -144 182 -271 5 -90 -4 -128 -47 -196 -26 -40
-34 -46 -94 -62 -37 -10 -93 -34 -124 -53 -51 -30 -64 -34 -102 -29 -67 9
-160 65 -204 122 -73 96 -87 235 -35 339 33 65 49 76 133 103 39 12 90 35 115
52 53 34 92 33 176 -5z m794 25 c40 -8 63 -20 102 -55 28 -25 64 -53 80 -62
71 -43 100 -203 57 -317 -26 -71 -91 -140 -164 -176 -70 -34 -199 -35 -266 -2
-117 57 -180 149 -187 273 -3 45 1 92 8 115 17 55 72 134 92 134 28 0 129 41
178 71 25 16 46 29 46 29 1 0 25 -4 54 -10z m-1479 -661 c84 -21 184 -123 209
-214 18 -64 9 -179 -19 -233 -33 -65 -87 -118 -149 -149 -49 -24 -69 -28 -142
-28 -73 0 -93 4 -142 28 -109 54 -169 146 -176 273 -4 73 -1 88 23 142 31 69
103 144 162 168 78 33 143 36 234 13z m1006 -119 c60 -26 128 -94 160 -159 24
-48 28 -68 28 -141 0 -73 -4 -92 -28 -137 -53 -103 -147 -168 -256 -180 -109
-11 -171 20 -301 149 -55 55 -71 202 -32 292 35 79 58 104 101 111 45 7 175
67 186 85 9 14 86 4 142 -20z m-568 -642 c13 -5 51 -33 83 -63 33 -30 64 -55
69 -55 6 0 22 -26 37 -57 35 -75 37 -183 5 -255 -28 -62 -96 -134 -158 -166
-43 -23 -62 -27 -140 -27 -79 0 -97 4 -142 28 -69 36 -120 88 -152 156 -38 81
-37 193 2 273 43 89 133 158 230 178 45 9 127 3 166 -12z"/>
</g>
</svg>
